<?xml version="1.0" encoding="UTF-8" standalone="no"?>
<!-- Created with Inkscape (http://www.inkscape.org/) -->

<svg
   width="76.729164mm"
   height="52.652084mm"
   viewBox="0 0 76.729164 52.652084"
   version="1.1"
   id="svg5"
   xml:space="preserve"
   xmlns:inkscape="http://www.inkscape.org/namespaces/inkscape"
   xmlns:sodipodi="http://sodipodi.sourceforge.net/DTD/sodipodi-0.dtd"
   xmlns="http://www.w3.org/2000/svg"
   xmlns:svg="http://www.w3.org/2000/svg"><sodipodi:namedview
     id="namedview7"
     pagecolor="#ffffff"
     bordercolor="#000000"
     borderopacity="0.25"
     inkscape:showpageshadow="2"
     inkscape:pageopacity="0.0"
     inkscape:pagecheckerboard="0"
     inkscape:deskcolor="#d1d1d1"
     inkscape:document-units="mm"
     showgrid="false" /><defs
     id="defs2"><linearGradient
       id="paint0_linear_660_2433"
       x1="140.381"
       y1="-5.3506699"
       x2="146.668"
       y2="158.246"
       gradientUnits="userSpaceOnUse"><stop
         stop-color="white"
         stop-opacity="0.7"
         id="stop177" /><stop
         offset="0.976841"
         stop-color="white"
         stop-opacity="0"
         id="stop179" /></linearGradient><linearGradient
       id="paint1_linear_660_2433"
       x1="259.125"
       y1="-6.76648"
       x2="223.214"
       y2="101.926"
       gradientUnits="userSpaceOnUse"><stop
         stop-color="#26C076"
         id="stop182" /><stop
         offset="1"
         stop-color="#26C076"
         stop-opacity="0"
         id="stop184" /></linearGradient><linearGradient
       id="paint2_linear_660_2433"
       x1="164.271"
       y1="65.2761"
       x2="130.422"
       y2="130.64999"
       gradientUnits="userSpaceOnUse"><stop
         stop-color="#63ECD3"
         id="stop187" /><stop
         offset="1"
         stop-color="#835AF7"
         id="stop189" /></linearGradient><linearGradient
       id="paint3_linear_660_2433"
       x1="79.108101"
       y1="218.30701"
       x2="154.754"
       y2="132.55099"
       gradientUnits="userSpaceOnUse"><stop
         stop-color="#AF97F2"
         id="stop192" /><stop
         offset="1"
         stop-color="#503EBB"
         id="stop194" /></linearGradient><linearGradient
       id="paint4_linear_660_2433"
       x1="157.35201"
       y1="210.526"
       x2="155.00101"
       y2="111.217"
       gradientUnits="userSpaceOnUse"><stop
         stop-color="#63ECD3"
         id="stop197" /><stop
         offset="1"
         stop-color="#754EE2"
         id="stop199" /></linearGradient><linearGradient
       id="paint5_linear_660_2433"
       x1="111.098"
       y1="-9.9425602"
       x2="87.764999"
       y2="116.144"
       gradientUnits="userSpaceOnUse"><stop
         stop-color="#6A56E7"
         id="stop202" /><stop
         offset="1"
         stop-color="#AB8DFF"
         id="stop204" /></linearGradient><linearGradient
       id="paint6_linear_660_2433"
       x1="173.34801"
       y1="154.761"
       x2="194.478"
       y2="43.5116"
       gradientUnits="userSpaceOnUse"><stop
         stop-color="#63ECD3"
         id="stop207" /><stop
         offset="1"
         stop-color="#835AF7"
         id="stop209" /></linearGradient><linearGradient
       id="paint7_linear_660_2433"
       x1="-2.7764399"
       y1="-0.239502"
       x2="142.897"
       y2="-50.5033"
       gradientUnits="userSpaceOnUse"><stop
         stop-color="#84FFD3"
         id="stop212" /><stop
         offset="1"
         stop-color="#937AF7"
         id="stop214" /></linearGradient><linearGradient
       id="paint0_linear_660_2428"
       x1="77.269699"
       y1="185.85201"
       x2="395.90601"
       y2="84.017601"
       gradientUnits="userSpaceOnUse"
       gradientTransform="translate(46.187163,53.254471)"><stop
         stop-color="#12123E"
         id="stop259" /><stop
         offset="1"
         stop-color="#3E3174"
         id="stop261" /></linearGradient><linearGradient
       id="paint0_linear_660_2452"
       x1="82.9972"
       y1="8.7171898"
       x2="141.46899"
       y2="111.114"
       gradientUnits="userSpaceOnUse"><stop
         stop-color="white"
         stop-opacity="0.7"
         id="stop1067" /><stop
         offset="0.976841"
         stop-color="white"
         stop-opacity="0"
         id="stop1069" /></linearGradient><linearGradient
       id="paint1_linear_660_2452"
       x1="121.33"
       y1="7.9218798"
       x2="92.067802"
       y2="58.8204"
       gradientUnits="userSpaceOnUse"><stop
         stop-color="#26C076"
         id="stop1072" /><stop
         offset="1"
         stop-color="#26C076"
         stop-opacity="0"
         id="stop1074" /></linearGradient><linearGradient
       id="paint2_linear_660_2452"
       x1="142.241"
       y1="8.7171898"
       x2="83.769096"
       y2="111.114"
       gradientUnits="userSpaceOnUse"><stop
         stop-color="white"
         stop-opacity="0.7"
         id="stop1077" /><stop
         offset="0.976841"
         stop-color="white"
         stop-opacity="0"
         id="stop1079" /></linearGradient><linearGradient
       id="paint3_linear_660_2452"
       x1="167.00101"
       y1="12.0009"
       x2="147.62199"
       y2="40.859299"
       gradientUnits="userSpaceOnUse"><stop
         stop-color="#26C076"
         id="stop1082" /><stop
         offset="1"
         stop-color="#26C076"
         stop-opacity="0"
         id="stop1084" /></linearGradient><linearGradient
       id="paint4_linear_660_2452"
       x1="146.32001"
       y1="123.211"
       x2="115.261"
       y2="9.4591503"
       gradientUnits="userSpaceOnUse"><stop
         stop-color="white"
         stop-opacity="0.7"
         id="stop1087" /><stop
         offset="0.976841"
         stop-color="white"
         stop-opacity="0"
         id="stop1089" /></linearGradient><linearGradient
       id="paint5_linear_660_2452"
       x1="173.98801"
       y1="96.667702"
       x2="117.306"
       y2="81.368301"
       gradientUnits="userSpaceOnUse"><stop
         stop-color="#26C076"
         id="stop1092" /><stop
         offset="1"
         stop-color="#26C076"
         stop-opacity="0"
         id="stop1094" /></linearGradient><linearGradient
       id="paint6_linear_660_2452"
       x1="-2.9396101e-06"
       y1="51.4953"
       x2="28.3741"
       y2="183.315"
       gradientUnits="userSpaceOnUse"><stop
         stop-color="#AF97F2"
         id="stop1097" /><stop
         offset="1"
         stop-color="#503EBB"
         id="stop1099" /></linearGradient><linearGradient
       id="paint7_linear_660_2452"
       x1="224.70399"
       y1="53.636501"
       x2="199.692"
       y2="149.79601"
       gradientUnits="userSpaceOnUse"><stop
         stop-color="#63ECD3"
         id="stop1102" /><stop
         offset="1"
         stop-color="#754EE2"
         id="stop1104" /></linearGradient><linearGradient
       id="paint8_linear_660_2452"
       x1="149.99899"
       y1="9.5004597"
       x2="92.406998"
       y2="73.871803"
       gradientUnits="userSpaceOnUse"><stop
         stop-color="#82FBB2"
         id="stop1107" /><stop
         offset="0.978513"
         stop-color="#4BA9ED"
         id="stop1109" /></linearGradient><linearGradient
       id="paint0_linear_688_4394"
       x1="51.640701"
       y1="-10.5868"
       x2="90.019302"
       y2="143.774"
       gradientUnits="userSpaceOnUse"><stop
         stop-color="white"
         stop-opacity="0.7"
         id="stop1518" /><stop
         offset="1"
         stop-color="white"
         stop-opacity="0"
         id="stop1520" /></linearGradient><linearGradient
       id="paint1_linear_688_4394"
       x1="74.815201"
       y1="-21.7449"
       x2="17.1828"
       y2="38.470901"
       gradientUnits="userSpaceOnUse"><stop
         stop-color="#26C076"
         id="stop1523" /><stop
         offset="1"
         stop-color="#26C076"
         stop-opacity="0"
         id="stop1525" /></linearGradient><linearGradient
       id="paint2_linear_688_4394"
       x1="185.289"
       y1="29.531601"
       x2="192.07001"
       y2="101.772"
       gradientUnits="userSpaceOnUse"><stop
         stop-color="white"
         stop-opacity="0.7"
         id="stop1528" /><stop
         offset="0.976841"
         stop-color="white"
         stop-opacity="0"
         id="stop1530" /></linearGradient><linearGradient
       id="paint3_linear_688_4394"
       x1="230.17101"
       y1="41.770302"
       x2="167.343"
       y2="63.5783"
       gradientUnits="userSpaceOnUse"><stop
         offset="0.0204308"
         stop-color="#26C076"
         id="stop1533" /><stop
         offset="1"
         stop-color="#26C076"
         stop-opacity="0"
         id="stop1535" /></linearGradient><linearGradient
       id="paint4_linear_688_4394"
       x1="137.83299"
       y1="16.223499"
       x2="35.712601"
       y2="122.43"
       gradientUnits="userSpaceOnUse"><stop
         stop-color="#82FBB2"
         id="stop1538" /><stop
         offset="0.978513"
         stop-color="#4BA9ED"
         id="stop1540" /></linearGradient><linearGradient
       id="paint5_linear_688_4394"
       x1="9.5218801"
       y1="1.89855"
       x2="-78.788101"
       y2="156.01801"
       gradientUnits="userSpaceOnUse"><stop
         stop-color="#AF97F2"
         id="stop1543" /><stop
         offset="1"
         stop-color="#503EBB"
         id="stop1545" /></linearGradient><linearGradient
       id="paint6_linear_688_4394"
       x1="179.101"
       y1="100.21"
       x2="113.162"
       y2="165.53101"
       gradientUnits="userSpaceOnUse"><stop
         stop-color="#63ECD3"
         id="stop1548" /><stop
         offset="1"
         stop-color="#835AF7"
         id="stop1550" /></linearGradient><linearGradient
       id="paint7_linear_688_4394"
       x1="180.399"
       y1="70.517601"
       x2="136.326"
       y2="163.311"
       gradientUnits="userSpaceOnUse"><stop
         stop-color="#63ECD3"
         id="stop1553" /><stop
         offset="1"
         stop-color="#835AF7"
         id="stop1555" /></linearGradient><linearGradient
       id="paint8_linear_688_4394"
       x1="-27.8069"
       y1="-20.5"
       x2="100.501"
       y2="29.8248"
       gradientUnits="userSpaceOnUse"><stop
         stop-color="#84FFD3"
         id="stop1558" /><stop
         offset="1"
         stop-color="#937AF7"
         id="stop1560" /></linearGradient></defs><g
     inkscape:label="Layer 1"
     inkscape:groupmode="layer"
     id="layer1"
     transform="translate(-40.726983,-164.13131)"><g
       style="fill:none"
       id="g274"
       transform="matrix(0.26458333,0,0,0.26458333,28.50663,150.04093)"><rect
         y="53.254959"
         width="290"
         height="199"
         rx="20"
         fill="url(#paint0_linear_660_2428)"
         id="rect257"
         x="46.187164"
         style="fill:url(#paint0_linear_660_2428)"
         inkscape:export-filename="team.svg"
         inkscape:export-xdpi="96"
         inkscape:export-ydpi="96" /><g
         style="fill:none"
         id="g255"
         transform="translate(315.61988,268.37843)"><path
           d="m 62.1784,58.5005 1.0461,0.4818 0.0176,-1.1516 C 63.7244,26.2157 89.2338,0.750488 120.621,0.750488 c 26.724,0 49.189,18.459212 55.573,43.458512 l 0.221,0.8647 0.814,-0.3663 c 6.274,-2.8244 13.22,-4.3981 20.534,-4.3981 27.874,0 50.487,22.8336 50.487,51.0177 0,28.185 -22.108,50.505 -49.557,51.005 l -0.668,0.013 H 43.535 l 0.0016,-0.005 -0.9963,-0.038 C 19.3219,141.427 0.75,122.141 0.75,98.4491 c 0,-24.2502 19.455,-43.8934 43.4362,-43.8934 6.4206,0 12.5077,1.4187 17.9922,3.9448 z"
           stroke="url(#paint0_linear_660_2433)"
           stroke-width="1.5"
           id="path161"
           style="stroke:url(#paint0_linear_660_2433)" /><path
           d="m 62.1784,58.5005 1.0461,0.4818 0.0176,-1.1516 C 63.7244,26.2157 89.2338,0.750488 120.621,0.750488 c 26.724,0 49.189,18.459212 55.573,43.458512 l 0.221,0.8647 0.814,-0.3663 c 6.274,-2.8244 13.22,-4.3981 20.534,-4.3981 27.874,0 50.487,22.8336 50.487,51.0177 0,28.185 -22.108,50.505 -49.557,51.005 l -0.668,0.013 H 43.535 l 0.0016,-0.005 -0.9963,-0.038 C 19.3219,141.427 0.75,122.141 0.75,98.4491 c 0,-24.2502 19.455,-43.8934 43.4362,-43.8934 6.4206,0 12.5077,1.4187 17.9922,3.9448 z"
           stroke="url(#paint1_linear_660_2433)"
           stroke-width="1.5"
           id="path163"
           style="stroke:url(#paint1_linear_660_2433)" /><path
           fill-rule="evenodd"
           clip-rule="evenodd"
           d="m 91.6496,65.1213 c -10.5067,0 -19.0246,8.4531 -19.0246,18.8817 0,8.8797 6.1761,16.324 14.4969,18.34 L 134.875,89.9978 v -0.0813 l 0.126,0.0488 0.189,-0.0488 v 0.122 l 29.943,11.6105 c 8.564,-2.9761 14.7,-11.0199 14.7,-20.6583 0,-12.0923 -9.877,-21.8948 -22.06,-21.8948 -3.196,0 -6.232,0.6756 -8.974,1.8881 -2.783,-10.7084 -12.581,-18.6193 -24.24,-18.6193 -13.694,0 -24.8173,10.9128 -25.0276,24.4542 -2.4024,-1.087 -5.0693,-1.6976 -7.8818,-1.6976 z"
           fill="url(#paint2_linear_660_2433)"
           id="path165"
           style="fill:url(#paint2_linear_660_2433)" /><path
           d="M 68.3008,116.719 135.19,99.4272 v 79.5508 c 0,1.241 -0.321,2.431 -0.891,3.309 -0.57,0.878 -1.343,1.371 -2.15,1.371 H 71.3412 c -0.8064,0 -1.5797,-0.493 -2.1499,-1.371 -0.5702,-0.878 -0.8905,-2.068 -0.8905,-3.309 z"
           fill="url(#paint3_linear_660_2433)"
           id="path167"
           style="fill:url(#paint3_linear_660_2433)" /><path
           d="m 134.84,99.4272 44.592,17.2918 v 62.259 c 0,1.241 -0.522,2.431 -1.451,3.309 -0.929,0.878 -2.189,1.371 -3.503,1.371 H 134.84 Z"
           fill="url(#paint4_linear_660_2433)"
           id="path169"
           style="fill:url(#paint4_linear_660_2433)" /><path
           d="M 66.5723,117.151 134.874,99.4272 126.229,126.662 56.1973,142.224 Z"
           fill="url(#paint5_linear_660_2433)"
           id="path171"
           style="fill:url(#paint5_linear_660_2433)" /><path
           d="m 181.129,116.719 -46.255,-17.2918 8.646,27.2348 47.984,15.13 z"
           fill="url(#paint6_linear_660_2433)"
           id="path173"
           style="fill:url(#paint6_linear_660_2433)" /><rect
           width="165"
           height="6"
           rx="2"
           transform="matrix(-1,0,0,1,208,178)"
           fill="url(#paint7_linear_660_2433)"
           id="rect175"
           x="0"
           y="0"
           style="fill:url(#paint7_linear_660_2433)" /></g><g
         style="fill:none"
         id="g1154"
         transform="translate(48.98032,339.42877)"><path
           d="m 37.6797,51.9139 c 0,-22.1967 17.994,-40.1908 40.1908,-40.1908"
           stroke="url(#paint0_linear_660_2452)"
           stroke-width="1.5"
           id="path1049"
           style="stroke:url(#paint0_linear_660_2452)" /><path
           d="m 37.6797,51.9139 c 0,-22.1967 17.994,-40.1908 40.1908,-40.1908"
           stroke="url(#paint1_linear_660_2452)"
           stroke-width="1.5"
           id="path1051"
           style="stroke:url(#paint1_linear_660_2452)" /><path
           d="m 187.559,51.9139 c 0,-22.1967 -17.994,-40.1908 -40.191,-40.1908"
           stroke="url(#paint2_linear_660_2452)"
           stroke-width="1.5"
           id="path1053"
           style="stroke:url(#paint2_linear_660_2452)" /><path
           d="m 187.559,51.9139 c 0,-22.1967 -17.994,-40.1908 -40.191,-40.1908"
           stroke="url(#paint3_linear_660_2452)"
           stroke-width="1.5"
           id="path1055"
           style="stroke:url(#paint3_linear_660_2452)" /><path
           d="m 83.7312,124.71 c 15.6955,15.696 41.1428,15.696 56.8388,0"
           stroke="url(#paint4_linear_660_2452)"
           stroke-width="1.5"
           id="path1057"
           style="stroke:url(#paint4_linear_660_2452)" /><path
           d="m 83.7312,124.71 c 15.6955,15.696 41.1428,15.696 56.8388,0"
           stroke="url(#paint5_linear_660_2452)"
           stroke-width="1.5"
           id="path1059"
           style="stroke:url(#paint5_linear_660_2452)" /><path
           fill-rule="evenodd"
           clip-rule="evenodd"
           d="m 55.6571,82.9839 c 0,10.6855 -8.7809,19.3481 -19.6127,19.3481 -10.8318,0 -19.6128,-8.6626 -19.6128,-19.3481 0,-10.6854 8.781,-19.3477 19.6128,-19.3477 10.8318,0 19.6127,8.6623 19.6127,19.3477 z M 22.2647,107.632 h 27.5606 c 5.9028,0.007 11.5616,2.348 15.7355,6.509 4.1738,4.161 6.5219,9.802 6.5293,15.686 l 0.52,14.394 c 0,0.733 -0.2922,1.436 -0.8121,1.954 -0.52,0.519 -1.2253,0.81 -1.9606,0.81 H 3.29268 c -0.73537,0 -1.44061,-0.291 -1.9606,-0.81 -0.519976,-0.518 -0.812099,-1.221 -0.812099,-1.954 L 0,129.827 c 0.00733714,-5.884 2.35544,-11.525 6.5293,-15.686 4.1739,-4.161 9.8327,-6.502 15.7354,-6.509 z"
           fill="url(#paint6_linear_660_2452)"
           id="path1061"
           style="fill:url(#paint6_linear_660_2452)" /><path
           fill-rule="evenodd"
           clip-rule="evenodd"
           d="m 169.343,82.9839 c 0,10.6855 8.781,19.3481 19.613,19.3481 10.831,0 19.612,-8.6626 19.612,-19.3481 0,-10.6854 -8.781,-19.3477 -19.612,-19.3477 -10.832,0 -19.613,8.6623 -19.613,19.3477 z m 33.392,24.6481 h -27.56 c -5.903,0.007 -11.562,2.348 -15.736,6.509 -4.174,4.161 -6.522,9.802 -6.529,15.686 l -0.52,14.394 c 0,0.733 0.292,1.436 0.812,1.954 0.52,0.519 1.225,0.81 1.961,0.81 h 66.544 c 0.736,0 1.441,-0.291 1.961,-0.81 0.52,-0.518 0.812,-1.221 0.812,-1.954 L 225,129.827 c -0.007,-5.884 -2.355,-11.525 -6.529,-15.686 -4.174,-4.161 -9.833,-6.502 -15.736,-6.509 z"
           fill="url(#paint7_linear_660_2452)"
           id="path1063"
           style="fill:url(#paint7_linear_660_2452)" /><path
           fill-rule="evenodd"
           clip-rule="evenodd"
           d="m 132.969,20.3191 c 0,11.2216 -9.221,20.3186 -20.597,20.3186 -11.375,0 -20.5966,-9.097 -20.5966,-20.3186 0,-11.22167 9.2216,-20.318611719 20.5966,-20.318611719 11.376,0 20.597,9.096941719 20.597,20.318611719 z M 97.9015,46.4985 h 28.9435 c 6.199,0.0077 12.142,2.4659 16.525,6.8354 4.384,4.3695 6.849,10.2936 6.857,16.473 v 16.666 c 0,0.7698 -0.307,1.5081 -0.853,2.0525 -0.546,0.5443 -1.286,0.8501 -2.059,0.8501 H 77.4314 c -0.7723,0 -1.5129,-0.3058 -2.059,-0.8501 -0.5461,-0.5444 -0.8529,-1.2827 -0.8529,-2.0525 v -16.666 c 0.0077,-6.1794 2.4737,-12.1035 6.857,-16.473 4.3833,-4.3695 10.3261,-6.8277 16.525,-6.8354 z"
           fill="url(#paint8_linear_660_2452)"
           id="path1065"
           style="fill:url(#paint8_linear_660_2452)" /></g><g
         style="fill:none"
         id="g1605"
         transform="translate(81.562164,84.691959)"><path
           d="M 1,164.939 V 53.246 L 31.6486,27.1233 62.2971,1.00049 101.423,28.4238"
           stroke="url(#paint0_linear_688_4394)"
           stroke-width="1.5"
           id="path1500"
           style="stroke:url(#paint0_linear_688_4394)" /><path
           d="M 1,164.939 V 53.246 L 31.6486,27.1233 62.2971,1.00049 101.423,28.4238"
           stroke="url(#paint1_linear_688_4394)"
           stroke-width="1.5"
           id="path1502"
           style="stroke:url(#paint1_linear_688_4394)" /><path
           d="M 209.25,165.905 H 154.102 V 86.4351 l 33.76,-25.2243 21.388,21.0917 z"
           stroke="url(#paint2_linear_688_4394)"
           stroke-width="1.5"
           id="path1504"
           style="stroke:url(#paint2_linear_688_4394)" /><path
           d="M 209.25,165.905 H 154.102 V 86.4351 l 33.76,-25.2243 21.388,21.0917 z"
           stroke="url(#paint3_linear_688_4394)"
           stroke-width="1.5"
           id="path1506"
           style="stroke:url(#paint3_linear_688_4394)" /><path
           fill-rule="evenodd"
           clip-rule="evenodd"
           d="m 134.37,69.7422 c 0.118,-1.9672 0.135,-3.8829 0.038,-5.7902 -0.042,-0.7845 -0.552,-1.6374 -1.063,-2.3008 -9.888,-12.8575 -19.802,-25.6939 -29.722,-38.5251 -1.07,-1.3805 -2.157,-2.7475 -3.272,-4.1497 l -0.001,-0.0019 -10e-4,-0.0015 -0.005,-0.0063 C 99.9091,18.4202 99.4703,17.8683 99.0266,17.3081 L 57.843,43.9448 28.342,63.0254 v 6.7553 l -0.0206,0.0118 v 9.6721 c 23.809,-12.3994 47.2336,-24.5935 70.7583,-36.835 5.4993,5.7243 10.9643,11.4115 16.4533,17.123 l 0.082,0.0852 0.086,0.0896 0.025,0.0267 0.272,0.2825 c 6.07,6.3167 12.17,12.6651 18.379,19.1279 V 69.7504 Z M 28.2951,163.975 v -9.324 c 0.0197,-0.004 0.0392,-0.008 0.0586,-0.012 v -0.833 c -0.0039,0 -0.0078,-0.001 -0.0117,-0.001 v -0.005 -8.824 c 1.8902,-1.153 48.5394,-10.741 70.8373,-14.559 11.5727,4.629 23.2827,9.315 35.0817,14.037 v 5.099 c 0.002,0.001 0.004,0.001 0.006,0.002 v 0.005 9.388 c 0,0 0,0 0,0 v 5.027 z m 105.9809,-64.264 0.038,0.0339 v -0.0052 -9.8248 l -10.17,-10.0062 c -8.373,-8.2375 -16.793,-16.5218 -25.28,-24.8701 -7.2961,3.635 -14.5766,7.2625 -21.8466,10.8847 l -0.0528,0.0263 C 60.7172,74.0449 44.5219,82.1142 28.3215,90.1834 v 7.6374 c -0.4928,2.9912 -0.3427,6.5622 0.4307,8.6002 12.1555,-4.429 24.2786,-8.9535 36.3985,-13.4771 v -1e-4 h 1e-4 l 0.0031,-0.0012 0.0017,-6e-4 10e-4,-4e-4 0.0011,-3e-4 10e-4,-4e-4 0.001,-4e-4 c 11.2908,-4.2142 22.5787,-8.4273 33.8874,-12.5608 2.0369,1.5147 4.0499,3.0147 6.0479,4.5036 l 0.003,0.0021 c 3.843,2.863 7.63,5.6853 11.429,8.494 1.597,1.1807 3.186,2.375 4.781,3.575 4.175,3.1396 8.401,6.3176 12.968,9.3876 z m 0.023,17.502 v 9.477 h -0.001 v 5.032 c -0.379,-0.155 -0.725,-0.292 -1.048,-0.421 h -0.001 c -0.576,-0.229 -1.08,-0.428 -1.573,-0.648 l -3.802,-1.698 c -8.974,-4.009 -17.949,-8.018 -26.904,-12.06 -1.2742,-0.574 -2.4852,-0.653 -3.8225,-0.352 -12.6153,2.835 -25.2343,5.653 -37.8538,8.47 l -0.0088,0.002 -7.2597,1.621 c -7.2659,1.622 -14.5318,3.222 -21.803,4.823 -0.3415,0.076 -0.6905,0.115 -1.028,0.152 h -10e-5 v 0 c -0.1516,0.017 -0.3009,0.034 -0.4461,0.053 -0.6474,-1.565 -0.8541,-4.209 -0.614,-7.159 -0.1572,-2.023 -0.0489,-3.964 0.056,-5.846 0.0144,-0.258 0.0288,-0.516 0.0424,-0.772 1.9902,-1.354 65.9249,-23.8936 71.0479,-25.0467 7.0357,4.8997 14.1757,9.8707 21.3457,14.8627 4.55,3.167 9.112,6.343 13.667,9.515 z"
           fill="url(#paint4_linear_688_4394)"
           id="path1508"
           style="fill:url(#paint4_linear_688_4394)" /><path
           fill-rule="evenodd"
           clip-rule="evenodd"
           d="M 97.875,18.054 57.843,43.9458 28.342,63.0264 v 6.7553 l -0.0206,0.0118 v 9.6721 C 51.7239,67.2778 74.7551,55.2885 97.875,43.2575 Z m 0,37.4783 c -6.965,3.4701 -13.9161,6.9334 -20.8576,10.392 l -0.0528,0.0263 C 60.7172,74.0459 44.5219,82.1152 28.3215,90.1844 v 7.6374 c -0.4928,2.9912 -0.3427,6.5622 0.4307,8.6002 12.1555,-4.429 24.2786,-8.9535 36.3985,-13.4771 v 0 l 1e-4,-1e-4 0.0031,-0.0011 0.0017,-7e-4 10e-4,-3e-4 0.0011,-4e-4 10e-4,-4e-4 0.001,-4e-4 0.0011,-4e-4 C 76.061,88.8727 86.9587,84.8053 97.875,80.8095 Z m 0,37.7003 c -10.7286,3.2356 -67.7646,23.3784 -69.6426,24.6554 -0.0136,0.256 -0.028,0.514 -0.0424,0.772 -0.1049,1.882 -0.2132,3.823 -0.056,5.846 -0.2401,2.95 -0.0334,5.594 0.614,7.159 0.1452,-0.019 0.2945,-0.036 0.4461,-0.053 v 0 h 10e-5 v 0 c 0.3375,-0.037 0.6865,-0.076 1.028,-0.152 7.2712,-1.601 14.5371,-3.201 21.803,-4.823 l 7.2597,-1.621 0.0088,-0.002 c 12.6195,-2.817 25.2385,-5.635 37.8538,-8.47 0.2464,-0.056 0.4885,-0.098 0.7275,-0.127 z m 0,37.4114 c -22.7599,3.955 -67.6789,13.202 -69.533,14.333 v 8.824 0.005 l 0.0117,10e-4 v 0.833 l -0.0586,0.012 v 9.324 H 97.875 Z"
           fill="url(#paint5_linear_688_4394)"
           id="path1510"
           style="fill:url(#paint5_linear_688_4394)" /><path
           fill-rule="evenodd"
           clip-rule="evenodd"
           d="m 198.967,116.91 c 0.317,-1.442 0.436,-2.673 0.27,-3.782 l 0.087,0.103 c 0.605,-2.785 0.605,-4.76 -0.932,-6.692 -3.058,-3.834 -6.052,-7.7218 -9.047,-11.6096 v -3e-4 c -1.229,-1.5946 -2.457,-3.1893 -3.69,-4.7804 -1.238,-1.5987 -2.482,-3.1919 -3.78,-4.8546 l -0.003,-0.0032 c -0.484,-0.6197 -0.975,-1.2491 -1.477,-1.8921 -6.525,4.2177 -13,8.4038 -19.455,12.5764 l -0.012,0.0079 -0.009,0.006 c -6.156,3.9798 -12.293,7.9479 -18.438,11.9189 v 3.498 l -0.288,0.165 v 5.36 l 11.616,-6.041 c 8.783,-4.569 17.454,-9.079 26.214,-13.6346 h 0.006 c 6.349,6.5916 12.494,12.9676 18.938,19.6546 z m -56.439,14.971 c 12.873,-4.765 25.409,-9.403 37.861,-14.01 2.978,2.08 5.826,4.232 8.681,6.389 v 0 0 0 0 10e-4 0 c 3.404,2.572 6.817,5.152 10.474,7.626 v -4.045 c 0.018,0.014 0.036,0.028 0.053,0.042 v -4.886 c -1.528,-1.531 -3.055,-3.065 -4.584,-4.601 -4.862,-4.887 -9.736,-9.785 -14.707,-14.616 -4.749,2.368 -9.451,4.713 -14.122,7.042 -7.924,3.952 -15.76,7.859 -23.587,11.765 v 3.92 c -0.023,0.01 -0.046,0.019 -0.069,0.029 z m 56.989,8.884 v -3.367 c -4.867,-3.397 -9.711,-6.782 -14.537,-10.154 l -4.591,-3.209 c -5.191,1.815 -10.342,3.615 -15.464,5.404 l -0.046,0.016 c -7.497,2.62 -14.935,5.219 -22.351,7.812 v 5.328 l 0.026,-0.008 v 3.407 l 10.494,-2.338 c 9.147,-2.037 18.198,-4.053 27.32,-6.086 l 5.228,2.3 0.019,0.008 c 4.527,1.991 9.131,4.017 13.913,6.121 v -5.228 z m 0.006,18.375 v -1.899 l 0.006,10e-4 v -4.931 l 0.005,0.003 -0.005,-0.01 v 0.007 c -0.108,-0.076 -0.208,-0.153 -0.303,-0.226 v 0 c -0.214,-0.164 -0.405,-0.31 -0.619,-0.397 -1.14,-0.459 -2.28,-0.92 -3.419,-1.381 h -0.002 c -4.38,-1.771 -8.761,-3.542 -13.185,-5.201 -1.148,-0.431 -2.596,-0.463 -3.817,-0.226 -9.846,1.899 -19.674,3.874 -29.505,5.85 h -0.001 l -3.454,0.694 c -0.638,0.129 -1.263,0.326 -1.869,0.517 -0.265,0.084 -0.527,0.166 -0.785,0.242 v 2.584 l -0.1,0.017 v 5.154 l 0.005,0.006 0.001,-10e-4 v 3.912 l 0.005,0.005 c 3.717,0.737 55.042,0.5 57.059,-0.269 v -4.449 z"
           fill="url(#paint6_linear_688_4394)"
           id="path1512"
           style="fill:url(#paint6_linear_688_4394)" /><path
           fill-rule="evenodd"
           clip-rule="evenodd"
           d="m 180.399,83.4039 c -0.001,-0.0017 -0.002,-0.0034 -0.004,-0.0051 -6.525,4.2177 -13,8.4038 -19.455,12.5764 l -0.012,0.0079 -0.009,0.006 -0.005,0.0034 c -6.154,3.9787 -12.29,7.9455 -18.433,11.9155 v 3.498 l -0.288,0.165 v 5.36 l 11.616,-6.041 c 8.783,-4.569 17.454,-9.079 26.214,-13.6346 h 0.006 c 0.123,0.1284 0.247,0.2567 0.37,0.3849 z m 0,20.4681 c -0.031,-0.031 -0.062,-0.061 -0.093,-0.091 -4.734,2.361 -9.421,4.698 -14.077,7.02 l -0.045,0.022 v 0 c -7.924,3.952 -15.76,7.859 -23.587,11.765 v 3.92 l -0.069,0.029 v 5.344 c 12.873,-4.765 25.409,-9.403 37.861,-14.01 0.004,0.002 0.007,0.005 0.01,0.007 z m 0,20.171 -0.01,-0.008 c -5.191,1.815 -10.342,3.615 -15.464,5.404 l -0.046,0.016 c -7.497,2.62 -14.935,5.219 -22.351,7.812 v 5.328 l 0.026,-0.008 v 3.407 l 10.494,-2.338 c 9.147,-2.037 18.198,-4.053 27.32,-6.086 l 0.031,0.014 z m 0,20.718 c -0.747,-0.064 -1.518,-0.016 -2.215,0.119 -9.845,1.899 -19.673,3.874 -29.503,5.85 h -0.002 -0.001 l -3.454,0.694 c -0.638,0.129 -1.263,0.326 -1.869,0.517 -0.265,0.084 -0.527,0.166 -0.785,0.242 v 2.584 l -0.1,0.017 v 5.154 l 0.005,0.006 0.001,-10e-4 v 3.912 l 0.005,0.005 c 2.266,0.449 22.224,0.537 37.918,0.362 z"
           fill="url(#paint7_linear_688_4394)"
           id="path1514"
           style="fill:url(#paint7_linear_688_4394)" /><rect
           width="209"
           height="6"
           rx="2"
           transform="matrix(-1,0,0,1,219,161.563)"
           fill="url(#paint8_linear_688_4394)"
           id="rect1516"
           x="0"
           y="0"
           style="fill:url(#paint8_linear_688_4394)" /></g></g></g></svg>
